<svg width="36" height="42" viewBox="0 0 36 42" fill="none" xmlns="http://www.w3.org/2000/svg">
<path d="M29.2567 22.6738C29.3169 28.888 34.9661 30.9562 35.0284 30.9826C34.9807 31.128 34.126 33.9297 32.0526 36.8229C30.2602 39.3244 28.3996 41.8167 25.4694 41.8689C22.5901 41.9192 21.6641 40.2381 18.3718 40.2381C15.0806 40.2381 14.0522 41.8167 11.3262 41.9192C8.49742 42.0217 6.3433 39.2137 4.53602 36.7218C0.843245 31.6235 -1.97895 22.3152 1.8104 16.0319C3.69279 12.9116 7.05741 10.936 10.709 10.8851C13.4865 10.8345 16.1083 12.6693 17.8062 12.6693C19.5031 12.6693 22.6891 10.4627 26.0385 10.7866C27.4407 10.8424 31.3765 11.3273 33.9038 14.8602C33.7006 14.9808 29.2078 17.4784 29.2567 22.6738ZM23.8452 7.41408C25.3468 5.67841 26.3576 3.2615 26.0821 0.857483C23.9172 0.940449 21.2996 2.23484 19.7471 3.96985C18.3556 5.50587 17.1371 7.96509 17.4656 10.3215C19.8786 10.5 22.3433 9.15074 23.8452 7.41408Z" fill="white"/>
</svg>
