<svg width="1425" height="633" viewBox="0 0 1425 633" fill="none" xmlns="http://www.w3.org/2000/svg">
<path d="M664.037 462.247C641.62 570.799 577.376 665.792 508.934 752.936C440.492 840.079 365.663 923.856 316.042 1022.83C266.42 1121.8 244.165 1241.6 286.878 1343.93C329.591 1446.27 426.748 1511.64 510.636 1583.36C594.524 1655.08 674.717 1752.86 662.194 1862.53C650.733 1962.91 559.326 2041.17 460.442 2061.86C361.558 2082.55 258.342 2055.34 166.731 2012.81C-28.0628 1922.36 -184.221 1765.4 -273.668 1570.13C-363.116 1374.87 -379.986 1154.1 -321.246 947.54C-266.906 756.488 -151.471 589.2 -31.3423 430.962C64.5127 304.761 172.697 175.863 322.633 124.831C407.106 96.1058 534.198 83.8501 595.352 161.006C659.218 241.379 684.422 363.646 664.037 462.247Z" fill="url(#paint0_linear)"/>
<defs>
<linearGradient id="paint0_linear" x1="69.0081" y1="2142.16" x2="362.489" y2="108.605" gradientUnits="userSpaceOnUse">
<stop stop-color="#3000FF"/>
<stop offset="0.99" stop-color="#FF31B0" stop-opacity="0"/>
</linearGradient>
</defs>
</svg>
