<svg width="203" height="544" viewBox="0 0 203 544" fill="none" xmlns="http://www.w3.org/2000/svg">
<path d="M-278.091 100.949C-248.103 103.348 -218.87 91.9143 -188.984 88.5667C-159.097 85.2191 -123.422 93.7479 -111.504 121.405C-102.444 142.42 -110.511 166.803 -121.411 186.927C-132.312 207.052 -146.3 226.363 -149.785 248.979C-155.011 282.883 -131.85 318.842 -98.8226 328.075C-65.7956 337.308 -27.3103 318.645 -14.133 287.011C-9.13953 275.008 -7.49922 261.79 -2.15931 249.939C7.9904 227.43 31.2028 212.237 55.6419 208.744C80.0811 205.25 105.331 212.512 126.165 225.704C172.956 255.273 197.542 316.1 184.456 369.879C176.171 403.913 154.406 433.81 126.871 455.466C99.335 477.123 66.2898 490.984 32.3233 499.566C-76.2509 527.001 -197.33 499.242 -283.067 427.239C-368.805 355.237 -417.129 240.834 -408.914 129.148C-407.299 107.248 -396.845 45.4962 -363.48 51.8255C-348.776 54.6059 -338.182 74.8568 -326.2 83.2724C-312.016 93.3283 -295.412 99.4291 -278.091 100.949Z" fill="url(#paint0_linear)"/>
<defs>
<linearGradient id="paint0_linear" x1="336420" y1="-301015" x2="116948" y2="-126885" gradientUnits="userSpaceOnUse">
<stop offset="0.01" stop-color="#5F00CC"/>
<stop offset="1" stop-color="#290254"/>
</linearGradient>
</defs>
</svg>
